PathFileType	4	(X/Y/Z)	C:/Users/beibeiliu/ov580/test_trc/User2\sequence.35_training_dense_right.trc
DataRate	CameraRate	NumFrames	NumMarkers	Units	OrigDataRate	OrigDataStartFrame	OrigNumFrames
120	120	10	19	mm	120	57	112
Frame#	Time	ThumbCMC			ThumbMCP			ThumbIP			ThumbTip			IndexMCP			IndexPIP			IndexTip			MiddleMCP			MiddlePIP			MiddleTip			RingMCP			RingPIP			RingTip			PinkyMCP			PinkyPIP			PinkyTip			BackHand1			BackHand2			BackHand3	
		X0	Y0	Z0	X1	Y1	Z1	X2	Y2	Z2	X3	Y3	Z3	X4	Y4	Z4	X5	Y5	Z5	X6	Y6	Z6	X7	Y7	Z7	X8	Y8	Z8	X9	Y9	Z9	X10	Y10	Z10	X11	Y11	Z11	X12	Y12	Z12	X13	Y13	Z13	X14	Y14	Z14	X15	Y15	Z15	X16	Y16	Z16	X17	Y17	Z17	X18	Y18	Z18	
56	0.466667	100.112	62.536	-28.3919	78.0043	80.2492	-48.5561	55.3302	80.4239	-73.7558	36.635	71.2175	-91.2556	55.5182	46.8216	-94.894	30.5719	48.859	-79.3643	51.974	51.3215	-48.0291	51.4386	26.9785	-91.9533	27.755	28.2107	-66.0272	56.788	35.62	-38.168	47.3385	9.19853	-79.916	32.4179	13.387	-50.4991	64.8773	18.0587	-36.2592	49.68	-5.75264	-68.9563	39.2965	2.19118	-37.6697	70.4722	6.69814	-26.495	108.435	0.552001	-62.8584	128.316	1.70423	-33.8982	119.858	36.9585	-50.6802	
57	0.475	102.752	63.6412	-27.8587	84.8437	81.806	-53.7345	62.1404	84.5821	-82.0732	47.0287	73.3441	-94.6602	59.7297	50.9772	-96.4253	32.1965	47.951	-78.5903	56.1633	49.0016	-49.8778	53.2328	25.5436	-92.3886	29.3779	31.2677	-64.381	58.7044	34.5735	-39.1485	48.8854	6.48265	-80.8298	33.416	15.098	-54.0505	67.8878	23.4957	-40.1435	47.81	-8.22919	-69.3314	41.3674	6.92277	-41.9115	74.8103	10.5026	-29.2064	110.585	4.0931	-63.5262	127.375	1.1264	-35.9503	121.495	36.2009	-50.5336	
58	0.483333	105.871	63.0807	-30.6606	91.9927	84.0592	-51.4206	72.7755	90.1342	-80.4945	54.8531	74.587	-99.0379	62.6381	50.2829	-96.0938	34.9385	52.3104	-77.1351	57.8644	51.4047	-50.6174	57.8029	27.3726	-93.9741	31.9734	29.5737	-64.6933	63.0024	38.9894	-39.784	50.867	12.091	-82.9132	37.396	15.1264	-53.3841	68.6297	22.1966	-40.4252	51.2443	-7.51554	-70.6854	43.2622	6.07873	-41.0644	74.3924	9.5822	-28.4219	111.027	0.751881	-61.8421	130.501	0.385687	-30.8386	124.57	36.5037	-48.5014	
59	0.491667	108.348	62.3918	-29.4482	98.5115	87.449	-52.259	78.6337	86.9413	-81.7511	61.4984	79.406	-98.8911	64.6916	55.1148	-96.6504	38.1885	51.3172	-79.3636	61.7564	47.6386	-51.022	56.1529	29.1729	-94.1975	33.5183	32.2667	-66.3593	61.6645	36.2917	-39.8236	50.8714	9.80567	-82.8966	37.785	16.0499	-53.8267	70.6465	19.3984	-39.8921	54.1371	-7.70999	-71.9427	43.7673	4.59028	-41.7219	73.3139	10.1558	-31.6965	110.688	3.02266	-66.2437	131.698	0.816122	-31.7901	127.065	35.5479	-48.3567	
60	0.5	110.762	66.2733	-27.2731	99.7989	83.4019	-51.261	82.1394	92.836	-80.7346	63.287	83.9402	-102.062	62.7059	52.0684	-97.8413	38.8591	52.5022	-75.1107	64.5187	52.0249	-49.4472	60.9055	30.9536	-95.4666	34.6383	35.6427	-69.725	67.4468	35.4513	-39.8572	49.1274	9.82596	-81.9591	39.4603	16.1455	-55.0005	73.1302	19.6388	-40.53	54.9913	-8.44538	-70.9969	47.5875	9.55884	-42.4741	74.5277	8.01663	-29.2888	113.516	1.31908	-65.628	132.469	0.871705	-33.5461	126.893	36.7584	-52.06	
61	0.508333	109.188	65.5327	-30.9116	98.187	88.9606	-49.3383	79.156	96.8326	-80.1454	61.9746	85.1579	-97.5095	65.5745	53.1896	-96.0461	37.9524	47.8326	-75.3314	60.1506	51.6626	-49.8796	60.3293	26.103	-93.2013	33.6629	34.3237	-66.9091	62.6147	38.172	-40.1814	51.6166	11.841	-81.8004	37.228	17.0976	-56.4083	70.3461	20.4972	-38.53	53.3062	-4.4948	-70.1538	44.9946	4.84821	-41.9277	79.1877	11.5371	-29.8974	111.476	1.51503	-65.1186	131.624	1.41539	-33.9919	126.296	40.19	-50.3515	
62	0.516667	107.248	66.9068	-28.8636	91.6849	86.3789	-47.7241	70.9075	95.4233	-78.5977	53.5748	88.984	-95.8178	62.4763	49.2853	-93.8044	35.819	46.3017	-76.8804	58.5695	51.09	-46.7855	52.6852	26.3819	-93.2027	31.6672	32.0898	-65.9727	63.6717	34.7157	-38.2005	51.2837	6.86111	-80.2678	37.0987	18.116	-51.9232	72.8415	20.3969	-37.603	53.546	-10.1371	-68.7748	45.1088	5.73736	-39.1692	76.7824	11.7731	-30.1674	112.185	2.90506	-62.3306	132.499	0.212331	-31.9639	122.486	38.1952	-50.5	
63	0.525	100.993	68.2851	-27.6294	81.8301	85.9847	-44.1978	59.0803	96.3071	-69.3863	38.8649	86.8513	-90.215	58.3018	49.1354	-91.5558	30.5865	50.0819	-70.8906	56.8892	46.321	-44.8201	53.5315	26.2523	-90.5579	29.7805	28.0971	-65.973	62.6954	32.1201	-35.196	51.0098	6.05031	-79.7232	35.5493	11.0991	-52.2625	66.6412	17.7865	-36.0572	53.948	-10.2037	-68.5107	43.4264	3.12337	-41.7738	72.6963	9.10339	-25.8702	111.409	4.67691	-65.9478	131.701	3.94696	-31.5477	119.985	42.6305	-48.9966	
64	0.533333	98.0347	66.468	-19.9039	71.449	86.8687	-39.46	45.6604	93.6568	-57.6839	27.2254	79.9129	-79.3315	56.8663	54.872	-90.4968	28.6109	48.4649	-68.1417	53.0872	46.1	-42.4889	51.9126	31.1944	-90.2274	29.076	25.1724	-63.564	55.9193	33.3407	-34.5576	50.0332	7.71925	-80.171	35.2532	9.57205	-48.6653	63.8176	18.9695	-34.7381	54.1248	-7.70906	-69.3486	43.7273	1.06347	-38.7702	71.7713	6.07953	-23.535	110.311	5.92329	-65.9541	132.048	5.49737	-33.5056	119.428	42.3901	-46.0678	
65	0.541667	93.7045	67.9033	-20.001	65.149	80.4617	-32.9745	36.9197	86.9491	-51.9612	18.4834	73.0708	-69.0039	55.5569	53.9828	-89.1402	28.9573	43.0729	-69.6944	48.4146	43.6456	-42.2291	48.4	26.6684	-90.1517	27.7155	24.7745	-63.5197	52.7463	32.448	-34.3677	47.0489	10.5197	-78.8691	34.1463	12.5383	-51.1832	65.9415	21.3266	-34.6032	52.4089	-6.87055	-68.5423	44.774	-0.433379	-36.21	70.956	7.64837	-25.6008	111.452	7.58892	-63.3445	131.023	8.51909	-31.6107	119.397	42.6089	-49.0622	
